<?xml version="1.0" encoding="utf-8"?>
<!-- Generator: Adobe Illustrator 16.0.0, SVG Export Plug-In . SVG Version: 6.00 Build 0)  -->
<!DOCTYPE svg PUBLIC "-//W3C//DTD SVG 1.1//EN" "http://www.w3.org/Graphics/SVG/1.1/DTD/svg11.dtd">
<svg version="1.1" id="Layer_1" xmlns="http://www.w3.org/2000/svg" xmlns:xlink="http://www.w3.org/1999/xlink" x="0px" y="0px"
	 width="300px" height="92px" viewBox="0 0 300 92" enable-background="new 0 0 300 92" xml:space="preserve">
<path fill="#ED6267" d="M8.728,31.582c0-1.067,0.865-1.933,1.932-1.933l0,0h21.934V10.707c0-1.067,0.865-1.932,1.932-1.932l0,0
	c1.067,0,1.932,0.865,1.932,1.932l0,0v18.942h3.856l0.003-26.034c0-1.067,0.862-1.929,1.929-1.929l0,0
	c1.067,0,1.932,0.862,1.932,1.929l0,0v29.897h-9.652H10.66v0.003C9.593,33.514,8.728,32.648,8.728,31.582L8.728,31.582z"/>
<path fill="#ED6267" d="M62.239,33.511h-9.651V3.615c0-1.068,0.865-1.933,1.932-1.933l0,0c1.065,0,1.93,0.865,1.93,1.933l0,0
	l-0.003,26.033h3.86V10.707c0-1.068,0.865-1.933,1.932-1.933l0,0c1.065,0,1.931,0.865,1.931,1.933l0,0v18.942h21.935
	c1.069,0,1.934,0.865,1.934,1.933l0,0c0,1.065-0.865,1.93-1.934,1.93l0,0H62.239V33.511z"/>
<path fill="#ED6267" d="M52.588,89.271V59.374h33.517v0.003c1.069,0,1.934,0.862,1.934,1.93l0,0c0,1.065-0.865,1.93-1.934,1.93l0,0
	H64.17v18.945c0,1.063-0.865,1.928-1.931,1.928l0,0c-1.067,0-1.932-0.864-1.932-1.928l0,0V63.236H56.45v26.035
	c0,1.065-0.865,1.932-1.93,1.932l0,0C53.453,91.203,52.588,90.337,52.588,89.271L52.588,89.271z"/>
<path fill="#ED6267" d="M40.315,89.271V63.238h-3.859V82.18c0,1.067-0.865,1.93-1.929,1.93l0,0c-1.067,0-1.932-0.862-1.932-1.93l0,0
	V63.238H10.658c-1.066,0-1.932-0.865-1.932-1.932l0,0c0-1.067,0.865-1.935,1.932-1.935l0,0h33.519l0.003,29.899
	c0,1.064-0.868,1.932-1.932,1.932l0,0C41.181,91.203,40.315,90.336,40.315,89.271L40.315,89.271z"/>
<path fill="#ED6267" d="M2.765,43.65c-1.067,0-1.932-0.865-1.932-1.931l0,0c0-1.066,0.865-1.932,1.932-1.932l0,0H33.98
	c1.065,0,1.93,0.866,1.93,1.932l0,0c0,1.066-0.865,1.931-1.93,1.931l0,0H2.765L2.765,43.65z"/>
<path fill="#ED6267" d="M2.765,52.479c-1.067,0-1.932-0.864-1.932-1.93l0,0c0-1.066,0.865-1.932,1.932-1.932l0,0H33.98
	c1.065,0,1.93,0.865,1.93,1.932l0,0c0,1.065-0.865,1.93-1.93,1.93l0,0H2.765L2.765,52.479z"/>
<path fill="#ED6267" d="M63.867,43.65c-1.069,0-1.932-0.863-1.932-1.927l0,0c0-1.07,0.863-1.936,1.932-1.936l0,0H95.08
	c1.065,0,1.932,0.866,1.932,1.936l0,0c0,1.064-0.867,1.927-1.932,1.927l0,0H63.867L63.867,43.65z"/>
<path fill="#ED6267" d="M63.867,52.48c-1.069,0-1.932-0.866-1.932-1.931l0,0c0-1.067,0.863-1.932,1.932-1.932l0,0H95.08
	c1.065,0,1.932,0.864,1.932,1.932l0,0c0,1.064-0.867,1.931-1.932,1.931l0,0H63.867L63.867,52.48z"/>
<polygon fill="#ED6267" points="107.597,81.907 107.597,10.98 109.17,10.98 109.17,81.907 "/>
<path fill="#ED6267" d="M298.671,80.993V56.59h-2.772v11.016h-14.637V56.59h-2.775v24.402h2.775V70.255h14.637v10.737
	L298.671,80.993L298.671,80.993z M259.137,56.52c-7.043,0-12.662,5.404-12.662,12.238c0,6.901,5.551,12.376,12.557,12.376
	c3.363,0,6.625-1.5,9.017-3.767l-1.698-1.917c-1.906,1.813-4.507,2.928-7.18,2.928c-5.479,0-9.886-4.288-9.886-9.621
	c0-5.37,4.407-9.624,9.886-9.624c2.673,0,5.309,1.15,7.18,3.068l1.666-2.125C265.689,57.878,262.464,56.52,259.137,56.52
	 M221.02,70.604v-11.33h6.451c4.404,0,6.9,1.884,6.9,5.578c0,3.799-2.496,5.752-6.9,5.752H221.02z M234.131,80.993h3.155
	l-5.688-8.295c3.504-1.152,5.445-3.87,5.445-7.916c0-5.194-3.504-8.191-9.572-8.191h-9.226v24.402h2.774v-7.704h6.449
	c0.557,0,1.11-0.036,1.631-0.07L234.131,80.993z M206.003,56.59h-2.774v14.362c0,4.741-2.774,7.496-7.386,7.496
	c-4.612,0-7.459-2.755-7.459-7.496V56.59h-2.772v14.362c0,6.346,3.849,10.182,10.231,10.182c6.347,0,10.16-3.836,10.16-10.182V56.59
	z M173.367,80.993V56.59h-2.775v11.016h-14.633V56.59h-2.775v24.402h2.775V70.255h14.633v10.737L173.367,80.993L173.367,80.993z
	 M133.832,56.52c-7.04,0-12.66,5.404-12.66,12.238c0,6.901,5.55,12.376,12.556,12.376c3.363,0,6.625-1.5,9.016-3.767l-1.7-1.917
	c-1.907,1.813-4.508,2.928-7.178,2.928c-5.479,0-9.885-4.288-9.885-9.621c0-5.37,4.405-9.624,9.885-9.624
	c2.67,0,5.307,1.15,7.178,3.068l1.667-2.125C140.385,57.878,137.16,56.52,133.832,56.52"/>
<path fill="#ED6267" d="M292.234,42.667l6.437-11.189h-1.983l-5.418,8.876l-5.492-8.876h-2.01l6.56,11.26v5.765h1.907V42.667
	L292.234,42.667z M280.409,33.348v-1.871h-12.991v1.871h5.518v15.155h1.933V33.348H280.409z M261.564,31.478h-1.933v17.025h1.933
	V31.478z M251.458,48.503V31.478h-1.908v13.693l-10.167-13.693h-2.005v17.025h1.933v-13.67l10.166,13.67H251.458z M229.613,31.478
	h-1.932V41.5c0,3.307-1.938,5.229-5.156,5.229c-3.219,0-5.205-1.922-5.205-5.229V31.478h-1.934V41.5c0,4.427,2.684,7.1,7.139,7.1
	c4.431,0,7.088-2.673,7.088-7.1V31.478L229.613,31.478z M207.6,48.503V31.478h-2.377l-6.168,12.258l-6.189-12.258h-2.393v17.025
	h1.834V34.467l6.145,12.235h1.16l6.168-12.235l0.025,14.036H207.6z M182.294,48.503V31.478h-2.376l-6.169,12.258l-6.188-12.258
	h-2.396v17.025h1.837V34.467l6.145,12.235h1.16l6.168-12.235l0.025,14.036H182.294z M149.757,33.275
	c3.777,0,6.873,2.967,6.873,6.715c0,3.746-3.096,6.738-6.873,6.738c-3.775,0-6.922-2.993-6.922-6.738
	C142.834,36.242,145.982,33.275,149.757,33.275 M149.757,31.429c-4.96,0-8.88,3.743-8.88,8.561c0,4.792,3.919,8.609,8.88,8.609
	c4.938,0,8.856-3.816,8.856-8.609C158.613,35.197,154.695,31.429,149.757,31.429 M130.162,31.429c-4.912,0-8.83,3.768-8.83,8.537
	c0,4.816,3.869,8.634,8.757,8.634c2.348,0,4.623-1.043,6.292-2.624l-1.186-1.339c-1.331,1.267-3.146,2.044-5.009,2.044
	c-3.824,0-6.896-2.993-6.896-6.715c0-3.749,3.072-6.716,6.896-6.716c1.864,0,3.704,0.803,5.009,2.142l1.162-1.482
	C134.735,32.375,132.486,31.429,130.162,31.429"/>
<g>
	<path fill="#ED6267" d="M132.054,11.794c1.121,0.638,2.007,1.5,2.659,2.588c0.651,1.087,0.977,2.276,0.977,3.565
		c0,1.289-0.326,2.48-0.977,3.575s-1.538,1.964-2.659,2.608c-1.121,0.644-2.34,0.967-3.655,0.967c-1.316,0-2.535-0.322-3.656-0.967
		c-1.122-0.645-2.007-1.514-2.659-2.608c-0.651-1.094-0.977-2.286-0.977-3.575c0-1.289,0.326-2.478,0.977-3.565
		c0.651-1.088,1.537-1.95,2.659-2.588c1.121-0.638,2.339-0.957,3.656-0.957C129.714,10.837,130.933,11.156,132.054,11.794z
		 M125.186,12.509c-0.987,0.564-1.769,1.326-2.346,2.286c-0.578,0.96-0.866,2.011-0.866,3.152c0,1.141,0.289,2.195,0.866,3.162
		c0.577,0.967,1.359,1.735,2.346,2.306c0.987,0.571,2.058,0.856,3.213,0.856c1.154,0,2.226-0.285,3.212-0.856
		c0.986-0.571,1.769-1.339,2.346-2.306c0.577-0.967,0.866-2.021,0.866-3.162c0-1.141-0.289-2.192-0.866-3.152
		s-1.359-1.722-2.346-2.286c-0.987-0.564-2.058-0.846-3.212-0.846C127.243,11.663,126.173,11.945,125.186,12.509z"/>
	<path fill="#ED6267" d="M137.583,10.938h0.987L142.94,17l4.391-6.062h0.987l-4.854,6.768l5.236,7.311h-1.007l-4.753-6.566
		l-4.753,6.566H137.2l5.237-7.271L137.583,10.938z"/>
	<path fill="#ED6267" d="M151.883,10.938h8.479v0.826h-7.633v6.083h6.769v0.846h-6.769v6.324h-0.846V10.938L151.883,10.938z"/>
	<path fill="#ED6267" d="M172.456,11.794c1.121,0.638,2.007,1.5,2.659,2.588c0.65,1.087,0.977,2.276,0.977,3.565
		c0,1.289-0.326,2.48-0.977,3.575c-0.652,1.095-1.538,1.964-2.659,2.608s-2.34,0.967-3.655,0.967c-1.316,0-2.535-0.322-3.656-0.967
		s-2.006-1.514-2.658-2.608c-0.65-1.094-0.977-2.286-0.977-3.575c0-1.289,0.325-2.478,0.977-3.565
		c0.652-1.088,1.537-1.95,2.658-2.588c1.121-0.638,2.34-0.957,3.656-0.957C170.116,10.837,171.335,11.156,172.456,11.794z
		 M165.588,12.509c-0.986,0.564-1.77,1.326-2.347,2.286s-0.865,2.011-0.865,3.152c0,1.141,0.288,2.195,0.865,3.162
		c0.577,0.967,1.36,1.735,2.347,2.306c0.987,0.571,2.059,0.856,3.213,0.856s2.227-0.285,3.213-0.856
		c0.986-0.571,1.77-1.339,2.346-2.306c0.578-0.967,0.867-2.021,0.867-3.162c0-1.141-0.289-2.192-0.867-3.152
		c-0.576-0.96-1.358-1.722-2.346-2.286c-0.986-0.564-2.059-0.846-3.213-0.846S166.575,11.945,165.588,12.509z"/>
	<path fill="#ED6267" d="M188.921,25.017l-3.323-4.773c-0.336,0.054-0.731,0.081-1.188,0.081h-4.129v4.693h-0.846v-14.08h4.975
		c1.744,0,3.092,0.403,4.038,1.208c0.946,0.806,1.42,1.947,1.42,3.424c0,1.195-0.295,2.179-0.886,2.951
		c-0.592,0.772-1.45,1.299-2.578,1.581l3.523,4.915H188.921z M184.43,19.498c1.478,0,2.614-0.335,3.414-1.007
		c0.799-0.671,1.198-1.638,1.198-2.9c0-1.235-0.399-2.182-1.198-2.84c-0.8-0.658-1.938-0.987-3.414-0.987h-4.148v7.734H184.43z"/>
	<path fill="#ED6267" d="M203.211,11.875c1.107,0.625,1.984,1.477,2.629,2.558s0.967,2.266,0.967,3.555
		c0,1.276-0.322,2.454-0.967,3.535s-1.523,1.934-2.639,2.558s-2.33,0.937-3.646,0.937h-5.578v-14.08h5.6
		C200.893,10.938,202.104,11.25,203.211,11.875z M202.77,23.355c0.973-0.557,1.744-1.309,2.314-2.256
		c0.57-0.947,0.855-1.984,0.855-3.112c0-1.141-0.285-2.185-0.855-3.132s-1.343-1.699-2.314-2.256
		c-0.976-0.557-2.045-0.836-3.213-0.836h-4.734V24.19h4.755C200.73,24.191,201.794,23.912,202.77,23.355z"/>
</g>
</svg>
