<?xml version="1.0" encoding="utf-8"?>
<!-- Generator: Adobe Illustrator 13.0.0, SVG Export Plug-In . SVG Version: 6.00 Build 14948)  -->
<!DOCTYPE svg PUBLIC "-//W3C//DTD SVG 1.1//EN" "http://www.w3.org/Graphics/SVG/1.1/DTD/svg11.dtd">
<svg version="1.1" id="Layer_1" xmlns="http://www.w3.org/2000/svg" xmlns:xlink="http://www.w3.org/1999/xlink" x="0px" y="0px"
	 width="2000px" height="616px" viewBox="0 0 2000 616" enable-background="new 0 0 2000 616" xml:space="preserve">
<g>
	<path d="M66.066,210.741c0-7.091,5.748-12.845,12.839-12.845l0,0H224.67V72.014c0-7.091,5.749-12.84,12.84-12.84l0,0
		c7.091,0,12.839,5.749,12.839,12.84l0,0v125.883h25.628l0.02-173.013c0-7.091,5.729-12.82,12.819-12.82l0,0
		c7.091,0,12.839,5.729,12.839,12.82l0,0v198.682H237.51H78.905v0.02C71.814,223.585,66.066,217.832,66.066,210.741L66.066,210.741z
		"/>
	<path d="M421.684,223.566h-64.137V24.889c0-7.096,5.748-12.844,12.839-12.844l0,0c7.081,0,12.829,5.748,12.829,12.844l0,0
		l-0.02,173.008h25.649V72.014c0-7.097,5.748-12.844,12.839-12.844l0,0c7.081,0,12.829,5.747,12.829,12.844l0,0v125.883h145.775
		c7.101,0,12.85,5.748,12.85,12.845l0,0c0,7.078-5.749,12.825-12.85,12.825l0,0H421.684L421.684,223.566z"/>
	<path d="M357.546,594.131V395.439h222.741v0.021c7.101,0,12.85,5.728,12.85,12.818l0,0c0,7.081-5.749,12.828-12.85,12.828l0,0
		H434.512v125.905c0,7.071-5.748,12.818-12.829,12.818l0,0c-7.092,0-12.839-5.747-12.839-12.818l0,0V421.106h-25.629v173.024
		c0,7.08-5.748,12.829-12.829,12.829l0,0C363.294,606.96,357.546,601.211,357.546,594.131L357.546,594.131z"/>
	<path d="M275.987,594.131V421.116h-25.648v125.885c0,7.091-5.749,12.829-12.82,12.829l0,0c-7.091,0-12.839-5.738-12.839-12.829l0,0
		V421.116H78.896c-7.091,0-12.84-5.747-12.84-12.838l0,0c0-7.091,5.749-12.851,12.84-12.851l0,0h222.75l0.02,198.703
		c0,7.072-5.768,12.829-12.839,12.829l0,0C281.735,606.96,275.987,601.203,275.987,594.131L275.987,594.131z"/>
	<path d="M26.442,290.947c-7.091,0-12.838-5.748-12.838-12.829l0,0c0-7.091,5.747-12.84,12.838-12.84l0,0h207.443
		c7.081,0,12.83,5.75,12.83,12.84l0,0c0,7.081-5.749,12.829-12.83,12.829l0,0H26.442L26.442,290.947z"/>
	<path d="M26.442,349.623c-7.091,0-12.838-5.749-12.838-12.83l0,0c0-7.091,5.747-12.838,12.838-12.838l0,0h207.443
		c7.081,0,12.83,5.747,12.83,12.838l0,0c0,7.081-5.749,12.83-12.83,12.83l0,0H26.442L26.442,349.623z"/>
	<path d="M432.498,290.947c-7.101,0-12.84-5.738-12.84-12.809l0,0c0-7.111,5.739-12.86,12.84-12.86l0,0h207.433
		c7.081,0,12.84,5.75,12.84,12.86l0,0c0,7.071-5.759,12.809-12.84,12.809l0,0H432.498L432.498,290.947z"/>
	<path d="M432.498,349.631c-7.101,0-12.84-5.757-12.84-12.829l0,0c0-7.1,5.739-12.838,12.84-12.838l0,0h207.433
		c7.081,0,12.84,5.738,12.84,12.838l0,0c0,7.072-5.759,12.829-12.84,12.829l0,0H432.498L432.498,349.631z"/>
	<polygon points="723.109,545.185 723.109,73.831 733.568,73.831 733.568,545.185 723.109,545.185 	"/>
	<path d="M1992.918,539.109V376.94h-18.43v73.202h-97.263V376.94h-18.447v162.169h18.447v-71.356h97.263v71.356H1992.918z
		 M1730.179,376.476c-46.795,0-84.137,35.911-84.137,81.323c0,45.866,36.889,82.249,83.444,82.249
		c22.351,0,44.02-9.965,59.921-25.027l-11.289-12.74c-12.672,12.051-29.956,19.456-47.713,19.456
		c-36.413,0-65.696-28.493-65.696-63.938c0-35.684,29.283-63.95,65.696-63.95c17.757,0,35.27,7.644,47.713,20.385l11.061-14.124
		C1773.732,385.503,1752.301,376.476,1730.179,376.476 M1476.881,470.074v-75.296h42.862c29.274,0,45.866,12.513,45.866,37.064
		c0,25.254-16.592,38.231-45.866,38.231H1476.881z M1564.009,539.109h20.968l-37.797-55.129
		c23.279-7.654,36.178-25.718,36.178-52.602c0-34.519-23.279-54.438-63.614-54.438h-61.302v162.169h18.439V487.91h42.862
		c3.693,0,7.378-0.235,10.834-0.463L1564.009,539.109z M1377.08,376.94h-18.439v95.444c0,31.516-18.439,49.815-49.085,49.815
		c-30.656,0-49.56-18.3-49.56-49.815V376.94h-18.439v95.444c0,42.172,25.58,67.663,67.999,67.663
		c42.182,0,67.524-25.491,67.524-67.663V376.94z M1160.195,539.109V376.94h-18.439v73.202h-97.252V376.94h-18.448v162.169h18.448
		v-71.356h97.252v71.356H1160.195z M897.456,376.476c-46.784,0-84.126,35.911-84.126,81.323c0,45.866,36.878,82.249,83.435,82.249
		c22.351,0,44.029-9.965,59.92-25.027l-11.298-12.74c-12.672,12.051-29.956,19.456-47.703,19.456
		c-36.414,0-65.688-28.493-65.688-63.938c0-35.684,29.273-63.95,65.688-63.95c17.748,0,35.268,7.644,47.703,20.385l11.071-14.124
		C941.01,385.503,919.579,376.476,897.456,376.476"/>
	<path d="M1950.144,284.409l42.774-74.359h-13.184l-36.01,58.992l-36.494-58.992h-13.354l43.584,74.833v38.311h12.683V284.409z
		 M1871.558,222.48v-12.43h-86.338v12.43h36.669v100.713h12.84V222.48H1871.558z M1746.326,210.05h-12.84v113.144h12.84V210.05z
		 M1679.157,323.193V210.05h-12.682v91l-67.564-91h-13.322v113.144h12.839v-90.842l67.564,90.842H1679.157z M1533.986,210.05
		h-12.841v66.606c0,21.975-12.869,34.755-34.261,34.755s-34.597-12.781-34.597-34.755V210.05h-12.839v66.606
		c0,29.422,17.826,47.18,47.436,47.18c29.441,0,47.102-17.758,47.102-47.18V210.05z M1387.687,323.193V210.05h-15.791l-40.988,81.46
		l-41.144-81.46h-15.902v113.144h12.198v-93.277l40.828,81.307h7.714l40.986-81.307l0.169,93.277H1387.687z M1219.522,323.193
		V210.05h-15.792l-40.997,81.46l-41.135-81.46h-15.91v113.144h12.207v-93.277l40.828,81.307h7.713l40.987-81.307l0.169,93.277
		H1219.522z M1003.291,221.997c25.105,0,45.677,19.717,45.677,44.625c0,24.898-20.571,44.79-45.677,44.79
		c-25.087,0-46.005-19.892-46.005-44.79C957.286,241.714,978.204,221.997,1003.291,221.997 M1003.291,209.729
		c-32.967,0-59.012,24.878-59.012,56.892c0,31.851,26.045,57.215,59.012,57.215c32.818,0,58.853-25.364,58.853-57.215
		C1062.144,234.771,1036.109,209.729,1003.291,209.729 M873.071,209.729c-32.641,0-58.675,25.042-58.675,56.734
		c0,32.009,25.708,57.373,58.191,57.373c15.604,0,30.725-6.933,41.816-17.433l-7.881-8.898
		c-8.849,8.414-20.908,13.579-33.293,13.579c-25.411,0-45.826-19.88-45.826-44.621c0-24.908,20.415-44.632,45.826-44.632
		c12.386,0,24.612,5.333,33.293,14.232l7.723-9.85C903.461,216.019,888.518,209.729,873.071,209.729"/>
	<path d="M1300.104,76.497h34.183c24.946,0,45.313,19.842,45.313,44.247c0,24.262-20.367,44.102-45.313,44.102h-34.183V76.497z
		 M1297.438,73.835v93.672h36.849c26.408,0,47.979-21.027,47.979-46.764c0-25.881-21.57-46.908-47.979-46.908H1297.438z
		 M1203.335,132.679V76.497h29.096c21.048,0,33.105,10.064,33.105,27.762c0,18.094-12.058,28.42-33.105,28.42H1203.335z
		 M1268.213,104.259c0-19.307-12.987-30.423-35.782-30.423h-31.762v93.672h2.666v-32.171h29.096c3.082,0,5.896-0.262,8.573-0.523
		l23.87,32.694h3.339l-24.256-33.233C1259.512,130.937,1268.213,120.34,1268.213,104.259 M1128.681,76.497
		c24.946,0,45.45,19.842,45.45,44.104c0,24.276-20.504,44.245-45.45,44.245c-24.929,0-45.432-19.969-45.432-44.245
		C1083.249,96.339,1103.752,76.497,1128.681,76.497 M1128.681,73.835c-26.399,0-48.107,21.027-48.107,46.766
		c0,25.752,21.708,46.906,48.107,46.906c26.419,0,48.117-21.154,48.117-46.906C1176.798,94.863,1155.1,73.835,1128.681,73.835
		 M1072.513,76.497v-2.662h-54.525v93.672h2.656v-43.292h45.718v-2.664h-45.718V76.497H1072.513z M959.943,118.996l32.562-45.161
		h-3.209l-30.962,42.883L927.51,73.835h-3.22l32.434,45.161l-34.973,48.511h3.22l33.363-46.369l33.5,46.369h3.21L959.943,118.996z
		 M862.503,76.497c24.937,0,45.451,19.842,45.451,44.104c0,24.276-20.514,44.245-45.451,44.245
		c-24.938,0-45.451-19.969-45.451-44.245C817.053,96.339,837.565,76.497,862.503,76.497 M862.503,73.835
		c-26.41,0-48.107,21.027-48.107,46.766c0,25.752,21.698,46.906,48.107,46.906c26.4,0,48.108-21.154,48.108-46.906
		C910.611,94.863,888.903,73.835,862.503,73.835"/>
</g>
</svg>
