<?xml version="1.0" encoding="utf-8"?>
<!-- Generator: Adobe Illustrator 13.0.0, SVG Export Plug-In . SVG Version: 6.00 Build 14948)  -->
<!DOCTYPE svg PUBLIC "-//W3C//DTD SVG 1.1//EN" "http://www.w3.org/Graphics/SVG/1.1/DTD/svg11.dtd">
<svg version="1.1" id="Layer_1" xmlns="http://www.w3.org/2000/svg" xmlns:xlink="http://www.w3.org/1999/xlink" x="0px" y="0px"
	 width="798.333px" height="242.492px" viewBox="0 0 798.333 242.492" enable-background="new 0 0 798.333 242.492"
	 xml:space="preserve">
<g>
	<path fill="#FFFFFF" d="M22.094,80.892c0-2.852,2.311-5.165,5.162-5.165l0,0h58.609V25.112c0-2.851,2.312-5.163,5.163-5.163l0,0
		c2.851,0,5.162,2.312,5.162,5.163l0,0v50.614h10.305l0.008-69.564c0-2.852,2.303-5.155,5.154-5.155l0,0
		c2.852,0,5.163,2.303,5.163,5.155l0,0v79.886H91.028H27.256v0.008C24.405,86.056,22.094,83.743,22.094,80.892L22.094,80.892z"/>
	<path fill="#FFFFFF" d="M165.08,86.048h-25.788V6.165c0-2.854,2.311-5.165,5.163-5.165l0,0c2.847,0,5.158,2.311,5.158,5.165l0,0
		l-0.008,69.562h10.313V25.112c0-2.853,2.311-5.164,5.162-5.164l0,0c2.848,0,5.158,2.311,5.158,5.164l0,0v50.614h58.613
		c2.855,0,5.167,2.312,5.167,5.165l0,0c0,2.846-2.312,5.157-5.167,5.157l0,0H165.08L165.08,86.048z"/>
	<path fill="#FFFFFF" d="M139.292,235.044v-79.89h89.559v0.008c2.855,0,5.167,2.303,5.167,5.154l0,0
		c0,2.847-2.312,5.158-5.167,5.158l0,0h-58.613v50.624c0,2.843-2.311,5.154-5.158,5.154l0,0c-2.851,0-5.162-2.311-5.162-5.154l0,0
		v-50.624h-10.305v69.569c0,2.847-2.311,5.158-5.158,5.158l0,0C141.603,240.202,139.292,237.891,139.292,235.044L139.292,235.044z"
		/>
	<path fill="#FFFFFF" d="M106.499,235.044v-69.565H96.186v50.615c0,2.851-2.311,5.158-5.154,5.158l0,0
		c-2.851,0-5.163-2.308-5.163-5.158l0,0v-50.615H27.252c-2.85,0-5.162-2.311-5.162-5.162l0,0c0-2.852,2.312-5.167,5.162-5.167l0,0
		h89.563l0.008,79.894c0,2.843-2.319,5.158-5.163,5.158l0,0C108.81,240.202,106.499,237.887,106.499,235.044L106.499,235.044z"/>
	<path fill="#FFFFFF" d="M6.162,113.141c-2.852,0-5.162-2.311-5.162-5.159l0,0c0-2.851,2.311-5.163,5.162-5.163l0,0H89.57
		c2.847,0,5.158,2.312,5.158,5.163l0,0c0,2.848-2.312,5.159-5.158,5.159l0,0H6.162L6.162,113.141z"/>
	<path fill="#FFFFFF" d="M6.162,136.732c-2.852,0-5.162-2.311-5.162-5.158l0,0c0-2.851,2.311-5.162,5.162-5.162l0,0H89.57
		c2.847,0,5.158,2.311,5.158,5.162l0,0c0,2.847-2.312,5.158-5.158,5.158l0,0H6.162L6.162,136.732z"/>
	<path fill="#FFFFFF" d="M169.428,113.141c-2.855,0-5.162-2.307-5.162-5.15l0,0c0-2.859,2.307-5.171,5.162-5.171l0,0h83.404
		c2.848,0,5.163,2.312,5.163,5.171l0,0c0,2.843-2.315,5.15-5.163,5.15l0,0H169.428L169.428,113.141z"/>
	<path fill="#FFFFFF" d="M169.428,136.736c-2.855,0-5.162-2.314-5.162-5.158l0,0c0-2.854,2.307-5.162,5.162-5.162l0,0h83.404
		c2.848,0,5.163,2.307,5.163,5.162l0,0c0,2.844-2.315,5.158-5.163,5.158l0,0H169.428L169.428,136.736z"/>
	<polygon fill="#FFFFFF" points="286.276,215.364 286.276,25.843 290.481,25.843 290.481,215.364 286.276,215.364 	"/>
	<path fill="#FFFFFF" d="M796.837,212.921v-65.204h-7.41v29.433h-39.108v-29.433h-7.416v65.204h7.416V184.23h39.108v28.691H796.837z
		 M691.197,147.529c-18.815,0-33.829,14.439-33.829,32.699c0,18.442,14.831,33.071,33.551,33.071
		c8.986,0,17.699-4.007,24.092-10.064l-4.538-5.123c-5.095,4.846-12.046,7.824-19.186,7.824c-14.64,0-26.415-11.457-26.415-25.708
		c0-14.348,11.775-25.713,26.415-25.713c7.14,0,14.182,3.074,19.186,8.197l4.446-5.679
		C708.708,151.159,700.091,147.529,691.197,147.529 M589.35,185.164v-30.275h17.234c11.771,0,18.441,5.031,18.441,14.903
		c0,10.154-6.67,15.372-18.441,15.372H589.35z M624.383,212.921h8.431l-15.198-22.166c9.359-3.078,14.547-10.34,14.547-21.15
		c0-13.878-9.36-21.888-25.578-21.888h-24.648v65.204h7.414v-20.586h17.234c1.486,0,2.966-0.095,4.357-0.186L624.383,212.921z
		 M549.223,147.717h-7.414v38.375c0,12.672-7.414,20.03-19.735,20.03c-12.326,0-19.928-7.358-19.928-20.03v-38.375h-7.414v38.375
		c0,16.957,10.285,27.207,27.342,27.207c16.96,0,27.149-10.25,27.149-27.207V147.717z M462.018,212.921v-65.204h-7.414v29.433
		h-39.102v-29.433h-7.418v65.204h7.418V184.23h39.102v28.691H462.018z M356.377,147.529c-18.811,0-33.826,14.439-33.826,32.699
		c0,18.442,14.828,33.071,33.547,33.071c8.987,0,17.703-4.007,24.092-10.064l-4.543-5.123c-5.095,4.846-12.044,7.824-19.18,7.824
		c-14.642,0-26.412-11.457-26.412-25.708c0-14.348,11.77-25.713,26.412-25.713c7.136,0,14.181,3.074,19.18,8.197l4.452-5.679
		C373.889,151.159,365.272,147.529,356.377,147.529"/>
	<path fill="#FFFFFF" d="M779.639,110.512l17.198-29.898h-5.3l-14.479,23.719l-14.674-23.719h-5.368l17.523,30.088v15.404h5.1
		V110.512z M748.042,85.612v-4.998h-34.715v4.998h14.744v40.494h5.162V85.612H748.042z M697.688,80.614h-5.162v45.492h5.162V80.614z
		 M670.682,126.106V80.614h-5.101v36.589l-27.165-36.589h-5.356v45.492h5.161V89.581l27.168,36.525H670.682z M612.312,80.614h-5.162
		v26.781c0,8.835-5.175,13.974-13.777,13.974c-8.6,0-13.909-5.139-13.909-13.974V80.614H574.3v26.781
		c0,11.83,7.168,18.97,19.072,18.97c11.839,0,18.939-7.14,18.939-18.97V80.614z M553.488,126.106V80.614h-6.35l-16.48,32.753
		l-16.541-32.753h-6.395v45.492h4.903V88.601l16.417,32.692h3.102l16.48-32.692l0.067,37.505H553.488z M485.873,126.106V80.614
		h-6.35l-16.483,32.753L446.5,80.614h-6.396v45.492h4.907V88.601l16.417,32.692h3.102l16.48-32.692l0.067,37.505H485.873z
		 M398.932,85.417c10.093,0,18.365,7.928,18.365,17.943c0,10.011-8.271,18.009-18.365,18.009c-10.087,0-18.498-7.998-18.498-18.009
		C380.434,93.345,388.844,85.417,398.932,85.417 M398.932,80.484c-13.255,0-23.728,10.003-23.728,22.875
		c0,12.806,10.472,23.004,23.728,23.004c13.195,0,23.663-10.199,23.663-23.004C422.594,90.554,412.126,80.484,398.932,80.484
		 M346.573,80.484c-13.125,0-23.592,10.069-23.592,22.812c0,12.87,10.337,23.068,23.397,23.068c6.275,0,12.354-2.787,16.813-7.009
		l-3.169-3.578c-3.558,3.383-8.406,5.46-13.386,5.46c-10.218,0-18.426-7.993-18.426-17.941c0-10.015,8.208-17.945,18.426-17.945
		c4.98,0,9.896,2.145,13.386,5.722l3.106-3.96C358.792,83.014,352.783,80.484,346.573,80.484"/>
	<path fill="#FFFFFF" d="M518.272,26.916h13.744c10.031,0,18.22,7.978,18.22,17.79c0,9.756-8.188,17.733-18.22,17.733h-13.744
		V26.916z M517.202,25.845v37.663h14.814c10.62,0,19.291-8.455,19.291-18.803c0-10.406-8.671-18.86-19.291-18.86H517.202z
		 M479.364,49.504V26.916h11.7c8.462,0,13.311,4.046,13.311,11.162c0,7.275-4.849,11.427-13.311,11.427H479.364z M505.45,38.077
		c0-7.762-5.222-12.232-14.386-12.232h-12.771v37.663h1.07V50.573h11.7c1.239,0,2.37-0.106,3.446-0.211l9.598,13.146h1.342
		l-9.751-13.363C501.952,48.804,505.45,44.543,505.45,38.077 M449.348,26.916c10.029,0,18.274,7.978,18.274,17.732
		c0,9.761-8.245,17.79-18.274,17.79c-10.024,0-18.267-8.029-18.267-17.79C431.082,34.893,439.324,26.916,449.348,26.916
		 M449.348,25.845c-10.615,0-19.343,8.454-19.343,18.803c0,10.354,8.728,18.86,19.343,18.86c10.62,0,19.346-8.506,19.346-18.86
		C468.694,34.299,459.968,25.845,449.348,25.845 M426.764,26.916v-1.07h-21.925v37.663h1.068V46.102h18.382V45.03h-18.382V26.916
		H426.764z M381.502,44.003l13.092-18.158h-1.291l-12.449,17.242l-12.394-17.242h-1.294l13.041,18.158l-14.062,19.505h1.295
		l13.415-18.644l13.469,18.644h1.291L381.502,44.003z M342.324,26.916c10.026,0,18.275,7.978,18.275,17.732
		c0,9.761-8.249,17.79-18.275,17.79c-10.027,0-18.274-8.029-18.274-17.79C324.049,34.893,332.296,26.916,342.324,26.916
		 M342.324,25.845c-10.619,0-19.343,8.454-19.343,18.803c0,10.354,8.724,18.86,19.343,18.86c10.614,0,19.343-8.506,19.343-18.86
		C361.667,34.299,352.938,25.845,342.324,25.845"/>
</g>
</svg>
